<svg id="Layer_1" height="512" viewBox="0 0 512 512" width="512" xmlns="http://www.w3.org/2000/svg" data-name="Layer 1"><path d="m359.48 11h-206.96c-22.09 0-39.52 17.91-39.52 40v99h286v-99c0-22.09-17.43-40-39.52-40z" fill="#8383a5"/><path d="m182.52 11h-30c-22.09 0-39.52 17.91-39.52 40v99h30v-99c0-22.09 17.43-40 39.52-40z" fill="#65657c"/><path d="m335 471.31v29.69h38v-31.66l.025-.25z" fill="#a4bdc1"/><path d="m139 469.34v31.66h38v-29.69l-38.025-2.22z" fill="#a4bdc1"/><path d="m113 149v286.31a39.6 39.6 0 0 0 26.58 37.625 38.41 38.41 0 0 0 12.94 2.065h206.96a38.41 38.41 0 0 0 12.94-2.065 39.6 39.6 0 0 0 26.58-37.625v-286.31z" fill="#6d6d93"/><path d="m371.45 102.39v17.73a4 4 0 0 1 -4 4h-63.91a4 4 0 0 1 -4-4v-17.73a4.005 4.005 0 0 1 4-4h63.91a4.005 4.005 0 0 1 4 4z" fill="#4ca987"/><path d="m178.16 149.52v37.51a15.835 15.835 0 1 1 -31.67 0v-74.03a15.835 15.835 0 1 1 31.67 0z" fill="#b0b5ca"/><path d="m143 435.31v-286.31h-30v286.31a39.6 39.6 0 0 0 26.58 37.625 38.41 38.41 0 0 0 12.94 2.065h30a38.41 38.41 0 0 1 -12.94-2.065 39.6 39.6 0 0 1 -26.58-37.625z" fill="#565672"/><path d="m327.25 437h-141.51c-16.39 0-29.74 12.81-29.74 29.21v8.79h201v-8.79c0-16.4-13.36-29.21-29.75-29.21z" fill="#6d7486"/><path d="m221.37 475.14v.17h-34.63v-.17-38.33-.29h34.63v.29z" fill="#595e6b"/><path d="m356.93 475.05v.26h-31.67v-38.79h1.99a29.684 29.684 0 0 1 29.68 29.69z" fill="#595e6b"/><path d="m290.63 475.14v.17h-34.63v-.17-38.33-.29h34.63v.29z" fill="#595e6b"/><g fill="#284268"><path d="m359.483 5h-206.966a45.642 45.642 0 0 0 -45.517 46v384.314c0 18.487 10 34.451 26 41.755v23.931a6.219 6.219 0 0 0 6.25 6h38.234c3.314 0 5.516-2.687 5.516-6v-20h146v20c0 3.313 2.2 6 5.516 6h38.234a6.219 6.219 0 0 0 6.25-6v-23.931c16-7.3 26-23.268 26-41.755v-384.314a45.642 45.642 0 0 0 -45.517-46zm-188.483 490h-26v-14.265a52.563 52.563 0 0 0 7.517.265h18.483zm10-26h-19v-2.8a23.667 23.667 0 0 1 19-23.148zm34 0h-22v-26h22zm35 0h-23v-26h23zm35 0h-23v-26h23zm34 0h-22v-26h22zm12 0v-26.133c11 1.915 20 11.648 20 23.338v2.795zm36 26h-26v-14h18.483a52.563 52.563 0 0 0 7.517-.265zm26-59.686a33.352 33.352 0 0 1 -30 33.507v-2.616c0-19.677-16.076-35.2-35.753-35.2h-141.5c-19.682-.005-35.747 15.523-35.747 35.2v2.695a33.346 33.346 0 0 1 -31-33.585v-279.315h21v31.033a22 22 0 0 0 44 0v-31.033h209zm-241-248.281v-74.033a10 10 0 0 1 20 0v74.035a10 10 0 0 1 -20 0zm241-43.033h-209v-31a22 22 0 0 0 -44 0v31h-21v-93a33.629 33.629 0 0 1 33.517-34h206.966a33.629 33.629 0 0 1 33.517 34z"/><path d="m368 92h-64a10 10 0 0 0 -10 10v18a10 10 0 0 0 10 10h64a10 10 0 0 0 10-10v-18a10 10 0 0 0 -10-10zm-3 26h-59v-14h59z"/><path d="m136 238.106a6 6 0 0 0 -6 6v75.807a6 6 0 0 0 12 0v-75.807a6 6 0 0 0 -6-6z"/><path d="m136 212.892a6 6 0 0 0 -6 6v4.834a6 6 0 0 0 12 0v-4.834a6 6 0 0 0 -6-6z"/></g></svg>